<?xml version="1.0" encoding="iso-8859-1"?>
<!-- Generator: Adobe Illustrator 19.0.0, SVG Export Plug-In . SVG Version: 6.00 Build 0)  -->
<svg version="1.1" id="Capa_1" xmlns="http://www.w3.org/2000/svg" xmlns:xlink="http://www.w3.org/1999/xlink" x="0px" y="0px"
	 viewBox="0 0 512 512" style="enable-background:new 0 0 512 512;" xml:space="preserve">
<path style="fill:#5C414B;" d="M360.21,143.774v-29.121c0-56.112-43.122-104.395-99.172-107.034
	C201.194,4.801,151.79,52.485,151.79,111.71v32.065c0,53.947-8.964,85.483-13.487,97.961c-1.348,3.719,0.268,7.836,3.76,9.693
	c15.974,8.497,59.495,30.235,97.904,36.637h32.065c38.409-6.401,81.93-28.139,97.904-36.637c3.492-1.858,5.108-5.974,3.76-9.693
	C369.174,229.258,360.21,197.721,360.21,143.774z"/>
<path style="fill:#503441;" d="M151.79,111.71v32.065c0,53.945-8.963,85.481-13.486,97.959c-1.352,3.73,0.299,7.853,3.802,9.715
	c14.903,7.919,53.608,27.26,89.845,35.056V127.742l-16.032-16.032c-26.666-26.666-28.471-60.345-26.709-79.957
	C166.351,50.869,151.79,79.58,151.79,111.71z"/>
<rect x="215.92" y="231.95" style="fill:#E6AF78;" width="80.16" height="104.21"/>
<path style="fill:#D29B6E;" d="M215.919,264.02c12.341,5.148,25.873,8.013,40.081,8.013c14.207,0,27.739-2.865,40.081-8.013v-32.068
	H215.92L215.919,264.02L215.919,264.02z"/>
<path style="fill:#FFDC64;" d="M371.737,307.043l-42.677-18.979l-57.028,24.048l-9.363,14.043c-3.173,4.76-10.166,4.76-13.339,0
	l-9.363-14.043l-56.155-24.048l-42.677,18.979c-17.806,7.918-29.074,25.798-28.535,45.278l4.212,152.179H396.06l4.212-152.179
	C400.811,332.841,389.543,314.961,371.737,307.043z"/>
<g>
	<path style="fill:#FFF082;" d="M166.219,368.226l-40.27-50.338c-8.671,9.103-13.71,21.368-13.348,34.433l4.212,152.179h49.407
		L166.219,368.226L166.219,368.226z"/>
	<path style="fill:#FFF082;" d="M346.653,368.226l40.27-50.338c8.671,9.103,13.71,21.368,13.348,34.433L396.06,504.5h-49.407
		L346.653,368.226L346.653,368.226z"/>
</g>
<path style="fill:#F0C087;" d="M331.927,193.101c2.066-6.485,3.233-13.258,3.407-20.061c1.234-48.117-69.102-34.3-123.283-75.021
	c-4.147,29.722-21.592,39.68-28.195,45.755c-2.972,2.734-6.498-8.016-10.537-8.016h-5.767c-0.004,0-0.008,0.002-0.012,0.002
	c-0.88,0.016-1.779,0.109-2.695,0.286c-7.802,1.51-13.053,8.975-13.053,16.922v5.799c0,7.668,4.91,14.903,12.378,16.645
	c1.681,0.392,3.317,0.503,4.884,0.378c3.986-0.318,7.465,2.582,8.183,6.516c6.815,37.35,39.447,65.679,78.765,65.679
	c33.415,0,61.936-20.494,73.95-49.564C330.529,197.005,331.812,193.446,331.927,193.101z"/>
<path style="fill:#E6AF78;" d="M207.903,167.823v-40.081c-8.016,0-24.048,16.032-24.048,16.032s-8.016-8.016-10.536-8.016h-5.768
	c-0.004,0-0.008,0.002-0.012,0.002c-0.878,0.016-1.776,0.109-2.689,0.285c-7.802,1.507-13.059,8.966-13.059,16.912v5.809
	c0,7.667,4.909,14.901,12.376,16.644c1.682,0.392,3.318,0.503,4.885,0.379c3.986-0.318,7.465,2.582,8.183,6.516
	c6.815,37.35,39.447,65.679,78.765,65.679c5.45,0,10.753-0.595,15.895-1.632C235.374,238.871,207.903,206.555,207.903,167.823z"/>
<g>
	<path style="fill:#FFF082;" d="M199.312,318.979l-15.457-30.915l17.422-14.881c3.567-3.047,8.976-2.393,11.714,1.415l26.977,37.514
		l-16.696,12.522C215.269,330.637,203.786,327.926,199.312,318.979z"/>
	<path style="fill:#FFF082;" d="M312.688,318.979l15.457-30.915l-17.422-14.881c-3.567-3.047-8.976-2.393-11.715,1.415
		l-26.977,37.514l16.696,12.522C296.731,330.637,308.214,327.926,312.688,318.979z"/>
</g>
<path style="fill:#DBD9DC;" d="M345.043,504.5H166.957c-8.509,0-15.536-6.647-16.008-15.143l-6.235-112.226
	c-0.511-9.19,6.804-16.922,16.008-16.922h190.556c9.204,0,16.518,7.732,16.008,16.922l-6.235,112.226
	C360.579,497.853,353.552,504.5,345.043,504.5z"/>
<circle style="fill:#FFFFFF;" cx="256" cy="436.36" r="20.04"/>
<path d="M440.371,497H403.77l3.999-144.472c0.625-22.605-12.322-43.149-32.985-52.338l-42.677-18.979
	c-0.258-0.115-0.519-0.21-0.782-0.294l-6.025-5.147c30.448-9.235,53.217-20.539,54.296-21.078c3.687-1.843,5.183-6.34,3.366-10.039
	c-0.153-0.311-15.252-31.853-15.252-100.879v-32.065C367.71,50.112,317.597,0,256,0S144.291,50.112,144.291,111.709v32.065
	c0,69.026-15.1,100.568-15.24,100.855c-1.853,3.705-0.351,8.21,3.354,10.063c1.087,0.543,23.853,11.847,54.294,21.08l-6.84,5.843
	l-41.77,18.576c-20.663,9.188-33.61,29.732-32.985,52.338L109.103,497H71.629c-4.142,0-7.5,3.358-7.5,7.5s3.358,7.5,7.5,7.5h368.742
	c4.142,0,7.5-3.358,7.5-7.5S444.513,497,440.371,497z M392.775,352.113L388.764,497h-21.793c0.879-2.258,1.427-4.685,1.568-7.227
	l6.235-112.225c0.357-6.43-1.976-12.8-6.4-17.478c-1.009-1.066-2.115-2.023-3.292-2.874l21.83-27.288
	C390.875,336.438,392.997,344.097,392.775,352.113z M305.98,315.625c-1.135,2.27-3.202,3.905-5.671,4.488
	c-2.47,0.583-5.05,0.044-7.08-1.478l-10.815-8.112l23.012-32.002l13.388,11.436L305.98,315.625z M265.943,307.734
	c-0.026,0.036-0.047,0.075-0.073,0.112c-0.025,0.036-0.054,0.069-0.079,0.106l-9.362,14.043c-0.054,0.081-0.153,0.23-0.43,0.23
	s-0.376-0.149-0.43-0.23l-9.362-14.043c-0.025-0.037-0.054-0.07-0.079-0.106c-0.026-0.037-0.046-0.076-0.073-0.112l-22.637-31.48
	v-27.062c10.119,4.059,21.124,6.291,32.581,6.291c11.376,0,22.4-2.222,32.581-6.312v27.082L265.943,307.734z M206.575,278.521
	l23.012,32.002l-10.815,8.111c-2.03,1.523-4.61,2.062-7.08,1.479c-2.469-0.583-4.537-2.219-5.671-4.488l0,0l-12.833-25.668
	L206.575,278.521z M256,15c53.326,0,96.71,43.384,96.71,96.709v32.065c0,54.793,9.072,87.118,13.901,100.442
	c-9.976,4.512-30.807,13.306-54.979,19.879l-2.664-2.275c-1.497-1.279-3.435-1.903-5.387-1.769v-18.647
	c14.049-9.101,25.501-22.213,32.545-38.168c4.123-9.337,6.441-19.712,6.705-30.003c0.867-33.826-28.153-42.394-58.878-51.465
	c-25.739-7.599-54.913-16.211-78.836-39.482c-2.97-2.888-7.717-2.822-10.605,0.146c-2.888,2.97-2.823,7.718,0.146,10.606
	c26.581,25.855,59,35.426,85.048,43.117c32.892,9.71,48.678,15.326,48.13,36.693c-0.214,8.354-2.092,16.767-5.432,24.33
	c-11.615,26.308-37.681,43.307-66.404,43.307c-35.029,0-65.045-24.999-71.372-59.441c-1.414-7.7-8.543-13.288-16.222-12.726
	c-0.84,0.062-1.699-0.012-2.563-0.216c-3.735-0.884-6.553-4.902-6.553-9.346v-6.152c0-4.553,2.979-8.509,6.93-9.202
	c3.255-0.572,6.384,0.628,8.364,3.21c1.436,1.872,3.348,3.21,5.529,3.869c3.195,0.965,6.719,0.4,9.429-1.513
	c6.56-4.63,12.121-10.504,16.527-17.458c2.217-3.499,1.179-8.132-2.32-10.35c-3.499-2.217-8.132-1.178-10.35,2.32
	c-2.681,4.231-5.911,7.927-9.629,11.024c-5.354-4.947-12.757-7.173-20.144-5.877c-1.507,0.265-2.954,0.685-4.337,1.229v-18.145
	C159.291,58.384,202.674,15,256,15z M145.389,244.217c3.611-9.962,9.592-30.551,12.381-63.206c1.463,0.721,3.001,1.304,4.618,1.687
	c2.327,0.55,4.69,0.748,7.022,0.586c0.173,0.07,0.424,0.323,0.465,0.469c4.489,24.44,18.869,44.93,38.544,57.673v18.625
	c-1.953-0.134-3.89,0.49-5.387,1.769l-2.663,2.275C176.195,257.521,155.363,248.728,145.389,244.217z M144.183,313.896
	l36.162-16.082l12.259,24.519l0,0c3.13,6.259,8.831,10.771,15.641,12.378c1.799,0.425,3.619,0.634,5.428,0.634
	c5.037,0,9.979-1.621,14.099-4.71l10.354-7.766l4.965,7.447c2.884,4.327,7.71,6.91,12.91,6.91c5.2,0,10.026-2.583,12.91-6.91
	l4.964-7.447l10.354,7.766c4.12,3.089,9.062,4.71,14.099,4.71c1.808,0,3.629-0.209,5.428-0.634
	c6.811-1.607,12.511-6.119,15.641-12.378l0,0l12.418-24.836l36.876,16.399c2.897,1.288,5.583,2.884,8.034,4.735l-27.262,34.078
	h-186.05l-27.263-34.078C138.6,316.781,141.286,315.185,144.183,313.896z M120.098,352.113c-0.222-8.017,1.9-15.675,5.864-22.204
	l21.516,26.894c-1.389,0.944-2.684,2.034-3.85,3.267c-4.425,4.678-6.758,11.048-6.4,17.477l6.235,112.225
	c0.141,2.543,0.689,4.97,1.568,7.228H124.11L120.098,352.113z M166.957,497c-4.526,0-8.268-3.54-8.519-8.059l-6.235-112.226
	c-0.131-2.365,0.693-4.615,2.321-6.336s3.829-2.668,6.198-2.668h190.557c2.369,0,4.57,0.947,6.198,2.668s2.452,3.971,2.321,6.337
	l-6.235,112.226c-0.251,4.519-3.993,8.059-8.519,8.059H166.957V497z"/>
<path d="M256,408.822c-15.186,0-27.541,12.354-27.541,27.541s12.354,27.541,27.541,27.541c15.187,0,27.541-12.354,27.541-27.541
	S271.186,408.822,256,408.822z M256,448.903c-6.915,0-12.541-5.626-12.541-12.541s5.625-12.541,12.541-12.541
	c6.916,0,12.541,5.626,12.541,12.541S262.915,448.903,256,448.903z"/>
<g>
</g>
<g>
</g>
<g>
</g>
<g>
</g>
<g>
</g>
<g>
</g>
<g>
</g>
<g>
</g>
<g>
</g>
<g>
</g>
<g>
</g>
<g>
</g>
<g>
</g>
<g>
</g>
<g>
</g>
</svg>
